<svg width="92" height="98" fill="none" xmlns="http://www.w3.org/2000/svg"><ellipse cx="44" cy="91" rx="30" ry="7" fill="#FCAE26" style="mix-blend-mode:multiply" opacity=".5"/><g clip-path="url(#a)"><path fill-rule="evenodd" clip-rule="evenodd" d="m62.761 7.656-1.082-.513a15.767 15.767 0 0 0-6.121-1.655A15.703 15.703 0 0 0 43.883 9.68a15.768 15.768 0 0 0-3.671 5.17l-20.14 43.91a23.57 23.57 0 0 0-.742 17.102 20.578 20.578 0 0 0 4.207 7.628 20.495 20.495 0 0 0 6.978 5.193l1.443.685a19.299 19.299 0 0 0 14.803.398 25.649 25.649 0 0 0 8.66-5.212 25.753 25.753 0 0 0 5.985-8.162l8.64-18.436a2.8 2.8 0 0 0 .1-2.14 2.815 2.815 0 0 0-1.438-1.588 2.785 2.785 0 0 0-2.132-.106 2.776 2.776 0 0 0-1.578 1.438l-8.64 18.435C52.63 81.946 42.263 88.073 34.33 84.307l-1.708-.59a15.786 15.786 0 0 1-5.04-3.86 15.85 15.85 0 0 1-3.12-5.537 18.01 18.01 0 0 1 .49-12.804l20.14-43.909a10.373 10.373 0 0 1 2.412-3.367 10.33 10.33 0 0 1 7.63-2.74c1.392.082 2.753.444 4.004 1.065l1.082.513a10.7 10.7 0 0 1 5.53 5.92 10.703 10.703 0 0 1-.198 8.1l-.17.362-.169.362-19.462 42.463a6.973 6.973 0 0 1-3.21 3.558 5.54 5.54 0 0 1-4.284-.266 5.763 5.763 0 0 1-3.025-3.424 7.306 7.306 0 0 1 .326-4.928l13.797-29.907a2.808 2.808 0 0 0-1.338-3.728 2.781 2.781 0 0 0-3.711 1.332L30.509 62.829a11.624 11.624 0 0 0-1.235 4.41 11.671 11.671 0 0 0 .562 4.55 10.71 10.71 0 0 0 2.124 4.115c1 1.2 2.249 2.166 3.66 2.828a10.062 10.062 0 0 0 4.086 1.216c1.432.108 2.87-.092 4.217-.588l.53-.19a12.78 12.78 0 0 0 6.178-6.127l19.631-42.825.17-.361a.269.269 0 0 0 .19-.252.275.275 0 0 0-.021-.11 16.522 16.522 0 0 0 .553-12.525 16.521 16.521 0 0 0-8.393-9.314Z" fill="#fff"/></g><defs><clipPath id="a"><path fill="#fff" transform="rotate(-19.747 68.898 10.12)" d="M0 0h68.697v77.602H0z"/></clipPath></defs></svg>