<svg width="28" height="22" viewBox="0 0 28 22" fill="none" xmlns="http://www.w3.org/2000/svg">
<path d="M8.80574 22C19.3726 22 25.1497 13.5368 25.1497 6.19734C25.1497 5.9572 25.1497 5.71707 25.1497 5.48001C26.2743 4.69383 27.2449 3.72011 28.0159 2.60455C26.9671 3.05261 25.8551 3.34728 24.7166 3.47889C25.9191 2.78531 26.8174 1.6902 27.242 0.400246C26.1152 1.04796 24.8819 1.50405 23.5955 1.74869C22.7299 0.857119 21.5843 0.266434 20.3361 0.0681717C19.088 -0.130091 17.8071 0.075141 16.6918 0.652063C15.5766 1.22898 14.6893 2.14538 14.1676 3.25924C13.6458 4.37311 13.5186 5.62224 13.8057 6.81306C11.5213 6.70321 9.28639 6.12971 7.24634 5.12986C5.2063 4.13002 3.40682 2.72624 1.96497 1.00982C1.22521 2.23153 0.997151 3.68061 1.3276 5.05972C1.65805 6.43883 2.52195 7.6434 3.74204 8.42627C2.8298 8.39789 1.93777 8.15935 1.14013 7.7305V7.80131C1.13796 9.08395 1.59611 10.3276 2.43647 11.3202C3.27683 12.3128 4.44735 12.9928 5.74841 13.2444C5.25463 13.3759 4.74468 13.4422 4.23249 13.4414C3.8701 13.4406 3.50862 13.4066 3.15287 13.3398C3.52022 14.443 4.23482 15.4078 5.19688 16.0994C6.15895 16.791 7.32043 17.1748 8.51911 17.1973C6.10841 19.0161 3.05298 19.8425 0.0159302 19.4971C2.64188 21.1303 5.69917 21.9972 8.82166 21.9939" fill="#1DA1F2"/>
</svg>
