<svg width="74" height="96" viewBox="0 0 74 96" fill="none" xmlns="http://www.w3.org/2000/svg">
<g style="mix-blend-mode:multiply" opacity="0.5">
<ellipse cx="24" cy="89" rx="24" ry="7" fill="#EF4224"/>
</g>
<path d="M29.38 11.8568C29.5842 11.3846 29.9649 11.0134 30.4389 10.8239C30.9129 10.6345 31.4418 10.6423 31.9101 10.8457L36.28 12.6456C36.7467 12.8494 37.119 13.225 37.3214 13.6965C37.5239 14.1679 37.5413 14.6997 37.37 15.1836L29.5401 35.9327L27.84 35.2351L20.6 32.2016L29.38 11.8568ZM33.0301 6.16409C33.3402 5.40683 33.9331 4.80357 34.6801 4.4854C35.4328 4.17245 36.2773 4.17245 37.03 4.4854C37.7789 4.799 38.3754 5.39862 38.6901 6.15397C38.8482 6.52966 38.9297 6.93357 38.9297 7.34189C38.9297 7.7502 38.8482 8.15436 38.6901 8.53005L37.95 10.3603L37.3001 10.0873L32.9301 8.27726L32.2901 8.01435L33.0301 6.16409ZM20.11 34.9823L27.96 38.2281L14.86 70.5853L12.33 69.5741L7.02006 67.3797L20.11 34.9823ZM7.46001 81.3541C7.42343 81.4078 7.36905 81.4465 7.30669 81.4632C7.24432 81.4799 7.17812 81.4736 7.12004 81.4452L5.0501 80.5957C4.99231 80.5727 4.94289 80.5322 4.90886 80.4797C4.87483 80.4272 4.85779 80.3652 4.86003 80.3025L6.34001 70.0898L13.48 73.0424L7.46001 81.3541ZM54.08 64.3361H34.7901C33.1545 64.3388 31.5866 64.997 30.4301 66.1664C29.2736 67.3358 28.6227 68.9213 28.62 70.5752C28.62 72.2308 29.2697 73.8185 30.4265 74.9901C31.5833 76.1618 33.1528 76.8214 34.7901 76.8241H43.6C44.7908 76.8241 45.9329 77.3025 46.7749 78.154C47.6169 79.0054 48.09 80.1601 48.09 81.3642C48.0873 82.5666 47.6131 83.7188 46.7714 84.5681C45.9296 85.4173 44.7891 85.8942 43.6 85.8942H5.60002L6.34001 84.0639C6.63434 84.1594 6.941 84.2106 7.25004 84.2158C7.71747 84.2173 8.17879 84.1085 8.59721 83.8978C9.01564 83.6871 9.37962 83.3805 9.66008 83.0024L16.6601 73.2445C16.6601 73.2445 16.66 73.1638 16.72 73.1233C16.7589 73.0695 16.7923 73.0118 16.82 72.9513L30.5301 39.037C30.6253 39.0276 30.7193 39.0071 30.8101 38.9763C30.9771 38.9053 31.128 38.8004 31.2536 38.6682C31.3791 38.5361 31.4766 38.3794 31.5401 38.2078L38.88 18.7632L42.78 20.3809C42.8736 20.4194 42.9568 20.48 43.0228 20.5574C43.0889 20.6347 43.1359 20.7267 43.16 20.826C43.1856 20.9279 43.1861 21.0343 43.1618 21.1365C43.1374 21.2387 43.0887 21.3334 43.02 21.4123C39.0106 26.1328 36.303 31.8389 35.1701 37.955L34.73 40.3514C34.6626 40.7093 34.7386 41.0798 34.9411 41.3813C35.1436 41.6827 35.4561 41.8906 35.8101 41.9592C35.8931 41.9688 35.977 41.9688 36.0601 41.9592C36.3785 41.9619 36.6876 41.8508 36.9328 41.6454C37.178 41.44 37.3434 41.1535 37.4 40.8367L37.85 38.4404C38.8931 32.8005 41.3867 27.5378 45.08 23.1818C45.4302 22.7707 45.6782 22.2811 45.8035 21.7534C45.9287 21.2258 45.9276 20.6754 45.8001 20.1483C45.6765 19.6217 45.4306 19.1324 45.0828 18.7209C44.735 18.3095 44.2953 17.9878 43.8001 17.7824L39.8001 16.1543V16.0935C40.2153 15.0139 40.2153 13.8163 39.8001 12.7367C39.8303 12.6952 39.857 12.6511 39.88 12.6051L41.13 9.51085C41.4246 8.80171 41.5763 8.04044 41.5763 7.27128C41.5763 6.50213 41.4246 5.74061 41.13 5.03147C40.8373 4.32278 40.4093 3.67933 39.8705 3.138C39.3317 2.59667 38.6927 2.16822 37.99 1.87676C37.288 1.58166 36.5353 1.42969 35.775 1.42969C35.0148 1.42969 34.2621 1.58166 33.5601 1.87676C32.8588 2.17 32.2224 2.60167 31.6884 3.14689C31.1543 3.69211 30.7332 4.33978 30.45 5.05171L29.1901 8.15605C29.1901 8.15605 29.1901 8.23681 29.1901 8.26714C28.1385 8.7517 27.3014 9.61266 26.84 10.684L17.5 32.3329C17.4282 32.5005 17.3911 32.681 17.3911 32.8637C17.3911 33.0463 17.4282 33.2271 17.5 33.3947C17.5404 33.4813 17.5908 33.5627 17.6501 33.6373L3.95 67.5518C3.94518 67.6158 3.94518 67.6799 3.95 67.7439C3.95 67.7944 3.95006 67.8348 3.89006 67.8752L2.17009 79.8576C2.09469 80.48 2.21185 81.1109 2.50554 81.6632C2.79923 82.2155 3.25503 82.6621 3.81011 82.9417L2.3001 86.6627C2.27283 86.7445 2.25598 86.8294 2.25005 86.9155C2.23963 87.0062 2.23963 87.0978 2.25005 87.1885C2.24728 87.3656 2.28133 87.5413 2.35003 87.7042C2.39488 87.7991 2.4521 87.8876 2.52007 87.9672C2.55414 88.0348 2.5943 88.099 2.64006 88.1592C2.77159 88.2833 2.92394 88.3826 3.09001 88.4525C3.25284 88.5161 3.42548 88.5505 3.60002 88.5537H43.6C45.5122 88.5537 47.3461 87.7855 48.6982 86.4183C50.0504 85.0511 50.8101 83.1966 50.8101 81.263C50.8074 79.3303 50.0469 77.4776 48.6953 76.1109C47.3438 74.7443 45.5114 73.9752 43.6 73.9726H34.7901C33.8759 73.9699 32.9998 73.6015 32.3534 72.9478C31.707 72.2942 31.3426 71.4085 31.34 70.4841C31.34 69.5579 31.7032 68.6695 32.3499 68.0137C32.9966 67.3579 33.8741 66.9882 34.7901 66.9855H54.08C54.4407 66.9855 54.7866 66.8405 55.0416 66.5826C55.2967 66.3247 55.4401 65.9749 55.4401 65.6102C55.4401 65.4296 55.4048 65.251 55.3364 65.0841C55.2681 64.9173 55.1679 64.7655 55.0416 64.6378C54.9153 64.5101 54.7655 64.4089 54.6005 64.3398C54.4355 64.2707 54.2586 64.2352 54.08 64.2352V64.3361Z" fill="white" stroke="white" stroke-width="1.25" stroke-miterlimit="10"/>
<path d="M66.13 64.3359H61.38C61.0193 64.3359 60.6734 64.4809 60.4183 64.7388C60.1633 64.9967 60.02 65.3465 60.02 65.7112C60.02 66.0759 60.1633 66.4257 60.4183 66.6836C60.6734 66.9414 61.0193 67.0864 61.38 67.0864H66.11C66.4706 67.0864 66.8166 66.9414 67.0716 66.6836C67.3267 66.4257 67.4699 66.0759 67.4699 65.7112C67.4713 65.5319 67.4377 65.3542 67.3711 65.1881C67.3044 65.022 67.2061 64.8707 67.0816 64.743C66.9572 64.6153 66.8091 64.5136 66.6458 64.4438C66.4826 64.374 66.3073 64.3373 66.13 64.3359Z" fill="white" stroke="white" stroke-width="1.25" stroke-miterlimit="10"/>
<path d="M71.98 64.3359H71.66C71.2993 64.3359 70.9534 64.4809 70.6984 64.7388C70.4433 64.9967 70.3 65.3465 70.3 65.7112C70.3 66.0759 70.4433 66.4257 70.6984 66.6836C70.9534 66.9414 71.2993 67.0864 71.66 67.0864H71.98C72.3407 67.0864 72.6866 66.9414 72.9417 66.6836C73.1967 66.4257 73.34 66.0759 73.34 65.7112C73.34 65.3465 73.1967 64.9967 72.9417 64.7388C72.6866 64.4809 72.3407 64.3359 71.98 64.3359Z" fill="white" stroke="white" stroke-width="1.25" stroke-miterlimit="10"/>
</svg>
