<svg width="122" height="93" viewBox="0 0 122 93" fill="none" xmlns="http://www.w3.org/2000/svg">
<g style="mix-blend-mode:multiply" opacity="0.5">
<ellipse cx="28" cy="87" rx="28" ry="6" fill="#FF7A00"/>
</g>
<g style="mix-blend-mode:multiply" opacity="0.5">
<ellipse cx="93" cy="87" rx="28" ry="6" fill="#FF7A00"/>
</g>
<g clip-path="url(#clip0_0_1)">
<path d="M73.45 54.1401L92.45 67.03L111.59 54.1401V52.8901H73.5L73.45 54.1401ZM80.27 11.2202H104.72L92.49 3.78003L80.27 11.2202ZM73.45 79.0801H111.59V58.4502L92.54 71.3401L73.54 58.4502L73.45 79.0801ZM69.88 79.0801V16.0801C69.8771 15.6581 69.9309 15.2377 70.04 14.8301H67.24C66.7653 14.8301 66.31 14.6416 65.9743 14.3059C65.6386 13.9702 65.45 13.5148 65.45 13.04C65.45 12.5653 65.6386 12.1101 65.9743 11.7744C66.31 11.4387 66.7653 11.2502 67.24 11.2502H73.4L91.26 0.380127C91.6323 0.15413 92.0595 0.034668 92.495 0.034668C92.9305 0.034668 93.3577 0.15413 93.73 0.380127L111.58 11.2502H117.49C117.965 11.2502 118.42 11.4387 118.756 11.7744C119.091 12.1101 119.28 12.5653 119.28 13.04C119.28 13.5148 119.091 13.9702 118.756 14.3059C118.42 14.6416 117.965 14.8301 117.49 14.8301H114.95C115.062 15.2372 115.12 15.6577 115.12 16.0801V79.0801H119.42C119.893 79.0827 120.346 79.2725 120.679 79.6079C121.013 79.9433 121.2 80.3971 121.2 80.8701C121.2 81.3422 121.012 81.7951 120.679 82.1289C120.345 82.4627 119.892 82.6501 119.42 82.6501H54.51C54.037 82.6502 53.5832 82.4629 53.2478 82.1294C52.9124 81.7959 52.7226 81.3431 52.72 80.8701C52.72 80.3954 52.9086 79.9402 53.2443 79.6045C53.58 79.2688 54.0352 79.0801 54.51 79.0801H69.88ZM73.45 30.27H84.45C84.9247 30.27 85.38 30.4587 85.7157 30.7944C86.0514 31.1301 86.24 31.5853 86.24 32.0601C86.24 32.5348 86.0514 32.9902 85.7157 33.3259C85.38 33.6616 84.9247 33.8501 84.45 33.8501H73.45V49.3201H111.59V16.05C111.588 15.8486 111.535 15.6509 111.435 15.4758C111.335 15.3008 111.192 15.1542 111.02 15.05L110.63 14.8201H74.46L74.07 15.05C73.8975 15.1542 73.7546 15.3008 73.6548 15.4758C73.555 15.6509 73.5017 15.8486 73.5 16.05V20.7502H89.57C90.043 20.7529 90.4957 20.9424 90.8293 21.2778C91.1628 21.6132 91.35 22.067 91.35 22.54C91.35 23.0121 91.1625 23.465 90.8286 23.7988C90.4948 24.1326 90.0421 24.3201 89.57 24.3201H73.5L73.45 30.27Z" fill="white" stroke="white"/>
<path d="M8.80002 54.1399L27.8 67.0298L46.8 54.1399V52.8899H8.69998L8.80002 54.1399ZM15.63 11.22H40.07L27.85 3.77979L15.63 11.22ZM8.80002 79.0798H46.9V58.45L27.9 71.3398L8.89999 58.45L8.80002 79.0798ZM5.23001 79.0798V16.0798C5.23037 15.6574 5.28753 15.237 5.39999 14.8298H2.59C2.11699 14.8272 1.66425 14.6374 1.33072 14.302C0.997189 13.9666 0.80996 13.5128 0.809967 13.0398C0.80996 12.5668 0.997189 12.113 1.33072 11.7776C1.66425 11.4422 2.11699 11.2526 2.59 11.25H8.75998L26.61 0.379883C26.9842 0.154074 27.413 0.034668 27.85 0.034668C28.2871 0.034668 28.7158 0.154074 29.09 0.379883L46.94 11.25H52.85C53.0846 11.25 53.3169 11.2962 53.5335 11.3862C53.7501 11.4763 53.9468 11.6083 54.1122 11.7747C54.2776 11.941 54.4085 12.1386 54.4974 12.3557C54.5863 12.5728 54.6313 12.8052 54.63 13.0398C54.6313 13.2744 54.5863 13.507 54.4974 13.7241C54.4085 13.9412 54.2776 14.1386 54.1122 14.3049C53.9468 14.4713 53.7501 14.6033 53.5335 14.6934C53.3169 14.7834 53.0846 14.8298 52.85 14.8298H50.3C50.4125 15.237 50.4696 15.6574 50.47 16.0798V79.0798H66.59C67.0647 79.0798 67.5201 79.2686 67.8557 79.6042C68.1914 79.9399 68.38 80.3951 68.38 80.8699C68.3747 81.3411 68.1838 81.7914 67.8487 82.1228C67.5136 82.4542 67.0613 82.6399 66.59 82.6399H1.79001C1.317 82.6399 0.863206 82.4527 0.527802 82.1191C0.192397 81.7856 0.002612 81.3329 -3.05176e-05 80.8599C-3.05176e-05 80.3851 0.188571 79.9299 0.524261 79.5942C0.859952 79.2585 1.31527 79.0698 1.79001 79.0698L5.23001 79.0798ZM8.80002 30.2698H19.8C20.0346 30.2698 20.2669 30.3162 20.4835 30.4062C20.7001 30.4963 20.8968 30.6283 21.0622 30.7947C21.2276 30.961 21.3585 31.1586 21.4474 31.3757C21.5362 31.5928 21.5813 31.8252 21.58 32.0598C21.58 32.5328 21.3928 32.9866 21.0592 33.322C20.7257 33.6574 20.273 33.8472 19.8 33.8499H8.80002V49.3198H46.9V16.0498C46.8963 15.8476 46.8411 15.6496 46.7396 15.4746C46.6381 15.2996 46.4937 15.1535 46.32 15.0498L45.93 14.8198H9.75998L9.37003 15.0498C9.19882 15.1554 9.05684 15.3023 8.95724 15.4771C8.85765 15.6518 8.80361 15.8487 8.80002 16.0498V20.75H24.87C25.3448 20.75 25.8 20.9385 26.1357 21.2742C26.4714 21.6099 26.66 22.0651 26.66 22.5398C26.6574 23.0128 26.4676 23.4655 26.1322 23.7991C25.7968 24.1326 25.343 24.3198 24.87 24.3198H8.80002V30.2698Z" fill="white" stroke="white"/>
</g>
<defs>
<clipPath id="clip0_0_1">
<rect width="121.2" height="82.65" fill="white"/>
</clipPath>
</defs>
</svg>
