<svg width="244" height="84" viewBox="0 0 244 84" fill="none" xmlns="http://www.w3.org/2000/svg">
<path d="M218.726 66.3456H244V12.9697H218.726L211.04 27.7494L218.726 39.6577L211.04 51.5659L218.726 66.3456Z" fill="white"/>
<path d="M0 39.6335L0 83.3921H70.8467V39.6335L0 39.6335Z" fill="#F1F1F2"/>
<g style="mix-blend-mode:multiply">
<path d="M29.153 60.9043L24.2163 66.3209L70.8501 83.3915V61.5122L29.153 60.9043Z" fill="#D0D2D3"/>
</g>
<path d="M92.5054 66.3456H24.2163V12.9697H92.5054L84.8224 27.7494L92.5054 39.6577L84.8224 51.5659L92.5054 66.3456Z" fill="white"/>
<path d="M128.761 40.6978L120.381 58.2939V68.0142L112.606 68.9691V59.3003L104.226 43.71L112.719 42.6796L116.608 52.9254L120.55 41.7076L128.761 40.6978Z" fill="white"/>
<path d="M148.789 41.1204C150.916 43.2888 151.979 46.5633 151.979 50.9437C152.027 53.5424 151.538 56.1231 150.544 58.5242C149.651 60.6497 148.205 62.4966 146.355 63.8721C144.398 65.2782 142.106 66.1452 139.709 66.3863C135.786 66.8695 132.761 66.0142 130.632 63.8206C128.504 61.6269 127.441 58.3399 127.443 53.9594C127.394 51.3684 127.882 48.7953 128.878 46.403C129.77 44.2868 131.217 42.451 133.066 41.0895C135.028 39.6975 137.317 38.8373 139.709 38.5924C143.643 38.1138 146.67 38.9565 148.789 41.1204ZM136.503 46.4064C135.846 47.7597 135.519 49.9465 135.521 52.9668C135.523 55.9871 135.85 58.1052 136.503 59.3211C137.155 60.5393 138.224 61.0568 139.709 60.8736C140.407 60.8143 141.076 60.5672 141.644 60.1584C142.213 59.7496 142.661 59.1944 142.94 58.5517C143.583 57.1778 143.903 54.9727 143.901 51.9364C143.899 48.9001 143.571 46.7934 142.919 45.6165C142.264 44.428 141.194 43.9243 139.709 44.1052C139.017 44.168 138.355 44.4153 137.791 44.8212C137.227 45.2272 136.782 45.777 136.503 46.4133V46.4064Z" fill="white"/>
<path d="M175.8 52.2938C175.815 54.0645 175.4 55.8123 174.592 57.3875C173.741 58.9934 172.477 60.3419 170.929 61.2928C169.091 62.4058 167.028 63.0925 164.89 63.3022C161.288 63.7441 158.57 63.2094 156.737 61.6981C154.904 60.1869 153.988 57.9451 153.99 54.9729V37.6L161.745 36.6555V53.8017C161.745 55.2889 161.993 56.3468 162.48 56.9788C162.968 57.6108 163.771 57.8581 164.883 57.7207C165.996 57.5833 166.789 57.1437 167.286 56.388C167.784 55.6324 168.021 54.5161 168.021 53.0323V35.8758L175.8 34.9175V52.2938Z" fill="white"/>
<path d="M187.877 50.3565L186.446 50.5317V59.8982L178.667 60.8531V34.567L188.279 33.3854C192.078 32.9275 194.909 33.2526 196.772 34.3609C198.635 35.4692 199.567 37.4636 199.567 40.3442C199.611 41.8228 199.233 43.2833 198.479 44.5552C197.751 45.7276 196.569 46.892 194.932 48.0483L201.349 58.064L192.742 59.1219L187.877 50.3565ZM186.463 45.3177L188.499 45.0704C189.406 45.013 190.257 44.6112 190.878 43.9473C191.407 43.329 191.671 42.4497 191.671 41.3197C191.671 39.3023 190.488 38.4402 188.121 38.7333L186.463 38.936V45.3177Z" fill="white"/>
<path d="M119.636 36.4524V25.76L113.587 26.5054V37.1943L105.757 38.156V11.6776L113.587 10.7159V20.4911L119.636 19.7492V9.97051L127.47 9.00879V35.4906L119.636 36.4524Z" fill="white"/>
<path d="M146.52 33.1482L145.49 28.1404L139.215 28.9097L138.226 34.1683L130.052 35.1713L137.769 7.74487L147.124 6.59424L154.807 32.1315L146.52 33.1482ZM140.32 23.2974L144.392 22.7959L142.332 12.6634L140.32 23.2974Z" fill="white"/>
<path d="M175.381 5.48138L171.77 10.187C171.076 9.74892 170.328 9.40257 169.545 9.15656C168.799 8.93943 168.015 8.88093 167.245 8.98482C165.697 9.17373 164.499 10.0152 163.651 11.5162C162.803 13.0172 162.377 15.1364 162.377 17.8739C162.377 20.6114 162.81 22.6104 163.671 23.8607C164.533 25.1109 165.762 25.6399 167.358 25.4441C168.209 25.3377 169.027 25.0545 169.761 24.6129C170.649 24.0582 171.482 23.4211 172.25 22.71L175.683 26.6256C174.57 27.8627 173.268 28.9153 171.825 29.7444C170.338 30.6206 168.687 31.1796 166.974 31.3862C164.365 31.7091 162.109 31.448 160.207 30.6031C158.292 29.7445 156.733 28.2478 155.796 26.368C154.757 24.3942 154.238 21.896 154.238 18.8734C154.185 16.2292 154.731 13.6073 155.834 11.2037C156.829 9.06371 158.368 7.22219 160.297 5.86264C162.25 4.50661 164.511 3.6601 166.874 3.39993C170.14 3.00608 172.976 3.6999 175.381 5.48138Z" fill="white"/>
<path d="M185.155 1.92346V28.4122L177.324 29.3739V2.89206L185.155 1.92346ZM200.823 0L193.329 12.6742L201.503 26.396L192.605 27.4882L185.395 14.261L192.773 0.989207L200.823 0Z" fill="white"/>
<path d="M115.558 79.0437C115.754 79.2117 115.906 79.424 116.003 79.6631C116.1 79.9021 116.138 80.1608 116.114 80.4176C116.143 80.85 116.057 81.2823 115.867 81.6716C115.677 82.0608 115.388 82.3935 115.029 82.6365C114.093 83.1885 113.044 83.5197 111.96 83.6051L108.792 83.9932V74.9564L111.61 74.6129C112.949 74.4481 113.975 74.503 114.679 74.7744C115.016 74.8961 115.303 75.1265 115.495 75.4293C115.687 75.7321 115.773 76.0901 115.74 76.4471C115.758 76.9318 115.589 77.4049 115.27 77.7695C114.95 78.1224 114.549 78.3923 114.102 78.556C114.624 78.5769 115.129 78.746 115.558 79.0437ZM111.466 76.4608V78.1232L111.919 78.0683C112.23 78.0542 112.529 77.9465 112.777 77.7592C112.866 77.6644 112.933 77.5522 112.976 77.4298C113.018 77.3074 113.035 77.1774 113.024 77.0482C113.035 76.9393 113.016 76.8295 112.969 76.7307C112.922 76.632 112.848 76.5481 112.757 76.4883C112.47 76.3732 112.156 76.3469 111.854 76.4127L111.466 76.4608ZM113.011 81.3897C113.131 81.2936 113.225 81.1692 113.285 81.0277C113.345 80.8862 113.368 80.7321 113.354 80.5791C113.369 80.4417 113.348 80.3028 113.292 80.1763C113.237 80.0497 113.149 79.9399 113.038 79.8578C112.743 79.7111 112.407 79.6675 112.084 79.7341L111.459 79.8131V81.7881L111.977 81.7229C112.339 81.6965 112.689 81.5821 112.997 81.3897H113.011Z" fill="white"/>
<path d="M124.892 78.9545C124.898 79.5646 124.755 80.1668 124.477 80.7097C124.185 81.2624 123.75 81.7262 123.217 82.0527C122.59 82.4319 121.886 82.6665 121.157 82.7396C119.921 82.8907 118.984 82.7087 118.352 82.1866C117.721 81.6645 117.405 80.8952 117.405 79.8751V73.8986L120.079 73.5551V79.4526C120.047 79.8354 120.136 80.2187 120.333 80.5482C120.435 80.6614 120.565 80.7448 120.71 80.7895C120.855 80.8343 121.01 80.8388 121.157 80.8024C121.32 80.7934 121.479 80.7476 121.621 80.6685C121.764 80.5894 121.887 80.479 121.981 80.3456C122.174 79.9918 122.262 79.5903 122.235 79.1881V73.3078L124.909 72.9644L124.892 78.9545Z" fill="white"/>
<path d="M129.699 78.2163L129.204 78.2781V81.4999L126.53 81.8434V72.7791L129.843 72.3704C131.147 72.2078 132.121 72.3223 132.764 72.7138C133.403 73.0985 133.725 73.7855 133.725 74.7747C133.739 75.2839 133.609 75.7866 133.348 76.2242C133.024 76.7015 132.608 77.1101 132.126 77.4263L134.333 80.8611L131.374 81.2251L129.699 78.2163ZM129.204 76.4989L129.891 76.4131C130.203 76.3923 130.495 76.2535 130.708 76.0249C130.904 75.7663 131 75.4455 130.979 75.1216C130.979 74.4347 130.573 74.1381 129.76 74.232L129.187 74.3007L129.204 76.4989Z" fill="white"/>
<path d="M141.216 70.9717L140.945 72.8642L137.958 73.2317V74.9216L140.581 74.5988V76.4054L137.958 76.7249V78.559L141.151 78.1675V80.036L135.284 80.7573V71.6896L141.216 70.9717Z" fill="white"/>
<path d="M147.67 79.2216L147.327 77.5042L145.185 77.7652L144.841 79.5616L142.047 79.9051L144.683 70.5385L147.88 70.147L150.502 78.8678L147.67 79.2216ZM145.555 75.8555L146.929 75.6872L146.242 72.225L145.555 75.8555Z" fill="white"/>
<path d="M158.656 74.8081C158.66 75.4169 158.518 76.0179 158.24 76.5598C157.949 77.1134 157.513 77.5784 156.98 77.9062C156.347 78.2858 155.638 78.5204 154.904 78.5931C153.665 78.7443 152.73 78.5599 152.099 78.0401C151.467 77.5204 151.15 76.7487 151.148 75.7251V69.7487L153.826 69.4052V75.3027C153.792 75.6841 153.879 76.0664 154.076 76.3949C154.177 76.5092 154.308 76.5937 154.454 76.6391C154.6 76.6845 154.755 76.6891 154.904 76.6525C155.067 76.6431 155.226 76.5968 155.368 76.517C155.511 76.4373 155.634 76.3263 155.727 76.1923C155.919 75.8392 156.007 75.4391 155.981 75.0382V69.1613L158.656 68.8179V74.8081Z" fill="white"/>
<path d="M167.204 68.5983L165.968 70.2023C165.731 70.0547 165.476 69.9392 165.209 69.8588C164.954 69.7837 164.686 69.7638 164.423 69.8004C164.163 69.8308 163.915 69.9255 163.701 70.0761C163.487 70.2266 163.314 70.4282 163.198 70.6625C162.878 71.3359 162.733 72.0788 162.775 72.823C162.775 73.7572 162.923 74.4442 163.218 74.8838C163.351 75.0884 163.542 75.2488 163.766 75.3448C163.991 75.4408 164.238 75.4681 164.478 75.4231C164.769 75.3878 165.05 75.2919 165.302 75.1414C165.605 74.9505 165.89 74.7321 166.153 74.4889L167.321 75.8284C166.94 76.2503 166.495 76.6097 166.002 76.8932C165.403 77.232 164.737 77.4339 164.051 77.4844C163.365 77.5349 162.676 77.4327 162.034 77.1851C161.38 76.892 160.849 76.3809 160.53 75.7391C160.148 74.942 159.965 74.0638 159.998 73.1802C159.979 72.2769 160.165 71.381 160.54 70.5595C160.88 69.8297 161.405 69.2011 162.061 68.7357C162.728 68.2731 163.5 67.9838 164.306 67.8942C165.327 67.736 166.369 67.9892 167.204 68.5983Z" fill="white"/>
<path d="M171.701 73.0635L171.207 73.1253V76.3471L168.533 76.6906V67.6194L171.842 67.2141C173.149 67.0515 174.124 67.166 174.767 67.5576C175.41 67.9492 175.729 68.6361 175.725 69.6184C175.739 70.1273 175.61 70.6299 175.35 71.0679C175.025 71.5446 174.61 71.9529 174.128 72.2701L176.336 75.7048L173.376 76.0689L171.701 73.0635ZM171.207 71.3461L171.893 71.2603C172.206 71.24 172.5 71.1012 172.714 70.8721C172.911 70.6139 173.007 70.2928 172.985 69.9688C172.985 69.2818 172.58 68.9796 171.763 69.0792L171.193 69.1513L171.207 71.3461Z" fill="white"/>
<path d="M182.46 74.9491L182.117 73.2317L179.975 73.4962L179.631 75.2891L176.84 75.6326L179.473 66.2661L182.67 65.8745L185.292 74.5953L182.46 74.9491ZM180.345 71.583L181.736 71.4147L181.032 67.9525L180.345 71.583Z" fill="white"/>
<path d="M192.986 65.4217L191.75 67.0291C191.512 66.8831 191.258 66.7677 190.991 66.6857C190.736 66.6123 190.468 66.5924 190.205 66.6273C189.945 66.6589 189.697 66.7545 189.483 66.9055C189.269 67.0566 189.096 67.2584 188.979 67.4928C188.653 68.1679 188.503 68.9147 188.543 69.6636C188.543 70.5978 188.691 71.2813 188.986 71.7072C189.119 71.9121 189.31 72.0729 189.534 72.1695C189.758 72.2661 190.006 72.2941 190.246 72.2499C190.538 72.2134 190.818 72.1163 191.07 71.9649C191.374 71.7764 191.659 71.559 191.922 71.3157L193.089 72.6518C192.709 73.0747 192.264 73.4342 191.771 73.7166C191.264 74.0165 190.7 74.2082 190.116 74.2799C189.334 74.4005 188.535 74.3068 187.802 74.0085C187.149 73.7163 186.617 73.2065 186.298 72.5659C185.916 71.7677 185.733 70.8883 185.766 70.0036C185.748 69.1012 185.935 68.2064 186.312 67.3863C186.65 66.6561 187.173 66.0272 187.829 65.5625C188.496 65.0985 189.268 64.8091 190.075 64.721C191.099 64.5596 192.146 64.8116 192.986 65.4217Z" fill="white"/>
<path d="M201.709 63.5425L198.822 69.6013V72.9399L196.148 73.2834V69.9586L193.264 64.5969L196.185 64.2535L197.521 67.7809L198.873 63.9237L201.709 63.5425Z" fill="white"/>
</svg>
