<svg width="198" height="65" fill="none" xmlns="http://www.w3.org/2000/svg"><path d="M177.491 51.053H198v-40.95h-20.509l-6.237 11.34 6.237 9.135-6.237 9.136 6.237 11.34Z" fill="#EC1C24"/><path d="M0 30.56v33.572h57.49V30.56H0Z" fill="#B1151B"/><path d="m23.657 46.88-4.006 4.155 37.842 13.097V47.346l-33.836-.467Z" fill="#B1151B" style="mix-blend-mode:multiply"/><path d="M75.066 51.053H19.65v-40.95h55.415l-6.235 11.34 6.235 9.135-6.235 9.136 6.235 11.34Z" fill="#EC1C24"/><path d="m104.487 31.377-6.8 13.5v7.457l-6.31.732v-7.418l-6.8-11.96 6.892-.791 3.156 7.86 3.198-8.606 6.664-.775ZM120.739 31.7c1.725 1.664 2.588 4.177 2.588 7.537a13.808 13.808 0 0 1-1.165 5.816 9.987 9.987 0 0 1-3.398 4.103 11.548 11.548 0 0 1-5.393 1.929c-3.184.37-5.639-.286-7.366-1.969-1.727-1.683-2.59-4.205-2.588-7.565a13.691 13.691 0 0 1 1.164-5.797 9.894 9.894 0 0 1 3.399-4.077 11.705 11.705 0 0 1 5.391-1.916c3.192-.367 5.648.28 7.368 1.94Zm-9.97 4.056c-.533 1.038-.799 2.716-.797 5.033.002 2.317.267 3.942.797 4.875.529.935 1.396 1.332 2.602 1.191a3.26 3.26 0 0 0 1.57-.548c.461-.314.825-.74 1.051-1.233.522-1.054.782-2.746.78-5.075-.002-2.33-.267-3.946-.797-4.849-.531-.912-1.399-1.298-2.604-1.16a3.265 3.265 0 0 0-1.557.55 3.012 3.012 0 0 0-1.045 1.221v-.005ZM142.658 40.273a8.046 8.046 0 0 1-.981 3.908 8 8 0 0 1-2.973 2.996 12.116 12.116 0 0 1-4.9 1.541c-2.923.34-5.128-.07-6.616-1.23-1.488-1.16-2.23-2.88-2.229-5.16V29l6.294-.725V41.43c0 1.14.2 1.952.596 2.437.395.485 1.047.675 1.95.57.902-.106 1.546-.443 1.95-1.023.404-.58.596-1.436.596-2.575V27.677l6.313-.735v13.33ZM152.458 38.786l-1.162.135v7.186l-6.312.733V26.672l7.8-.907c3.083-.351 5.38-.102 6.892.749 1.512.85 2.268 2.38 2.268 4.59a5.733 5.733 0 0 1-.884 3.23c-.59.9-1.549 1.794-2.877 2.68l5.206 7.685-6.984.811-3.947-6.725Zm-1.148-3.865 1.652-.19a2.966 2.966 0 0 0 1.931-.862c.429-.474.643-1.149.643-2.015 0-1.548-.96-2.21-2.88-1.985l-1.346.156v4.896ZM97.082 28.12v-8.204l-4.909.572v8.2l-6.354.739V9.112l6.354-.738v7.5l4.909-.57V7.804l6.357-.738v20.317l-6.357.738ZM118.898 25.585l-.836-3.842-5.093.59-.802 4.034-6.633.77 6.263-21.042 7.591-.883 6.234 19.593-6.724.78Zm-5.015-7.558 3.301-.385-1.671-7.773-1.63 8.158ZM142.32 4.359l-2.933 3.61a7.93 7.93 0 0 0-1.805-.79 4.724 4.724 0 0 0-1.867-.133c-1.253.144-2.226.792-2.916 1.942-.691 1.151-1.036 2.777-1.034 4.878 0 2.108.35 3.64 1.05 4.593.7.954 1.698 1.359 2.992 1.215a5.176 5.176 0 0 0 1.95-.638 13.416 13.416 0 0 0 2.02-1.46l2.786 3.004a12.692 12.692 0 0 1-3.131 2.393 10.55 10.55 0 0 1-3.934 1.26c-2.119.247-3.95.047-5.494-.601-1.554-.659-2.819-1.807-3.579-3.25-.843-1.517-1.265-3.434-1.265-5.75-.042-2.028.4-4.04 1.295-5.883a10.525 10.525 0 0 1 3.622-4.098 12.007 12.007 0 0 1 5.337-1.89c2.651-.302 4.953.23 6.906 1.598ZM150.249 1.628v20.323l-6.355.738V2.372l6.355-.744ZM162.963.153l-6.081 9.723 6.633 10.528-7.221.838-5.85-10.148L156.43.912l6.533-.76ZM93.772 60.795c.16.13.283.292.362.475.078.184.109.382.09.58.023.331-.046.663-.2.961a1.942 1.942 0 0 1-.68.74 6.04 6.04 0 0 1-2.491.744l-2.571.297V57.66l2.287-.263c1.086-.127 1.92-.084 2.49.124a1.3 1.3 0 0 1 .663.502c.156.233.225.507.198.781a1.41 1.41 0 0 1-.382 1.015c-.259.27-.584.477-.947.603.424.016.833.146 1.181.374Zm-3.32-1.981v1.275l.368-.042c.252-.01.495-.094.696-.237a.68.68 0 0 0 .2-.545.437.437 0 0 0-.045-.244.467.467 0 0 0-.172-.186 1.318 1.318 0 0 0-.732-.058l-.315.037Zm1.253 3.781a.717.717 0 0 0 .223-.278.677.677 0 0 0 .056-.344.577.577 0 0 0-.05-.309.613.613 0 0 0-.206-.244 1.26 1.26 0 0 0-.775-.095l-.507.06v1.516l.42-.05a1.88 1.88 0 0 0 .828-.256h.011ZM101.347 60.727a2.77 2.77 0 0 1-.337 1.346c-.238.424-.591.78-1.022 1.03-.51.292-1.08.472-1.672.528-1.006.116-1.763-.024-2.276-.425-.513-.4-.769-.99-.769-1.773v-4.585l2.17-.264v4.525c-.026.294.046.588.206.84.083.087.188.151.306.186a.717.717 0 0 0 .363.01.915.915 0 0 0 .377-.103.862.862 0 0 0 .292-.248c.155-.272.226-.58.206-.888v-4.511l2.17-.264-.014 4.596ZM105.247 60.16l-.401.048v2.471l-2.17.264v-6.954l2.688-.314c1.059-.124 1.849-.037 2.371.264.518.295.78.822.78 1.58.011.392-.095.777-.307 1.113-.263.366-.6.68-.991.922l1.791 2.635-2.401.28-1.36-2.309Zm-.401-1.317.557-.066c.253-.016.49-.123.663-.298a.998.998 0 0 0 .22-.693c0-.527-.329-.755-.989-.683l-.465.053.014 1.687ZM114.593 54.603l-.22 1.452-2.423.282v1.296l2.128-.248v1.387l-2.128.245v1.407l2.591-.3v1.433l-4.761.553v-6.956l4.813-.551ZM119.831 60.932l-.279-1.317-1.738.2-.279 1.378-2.265.264 2.14-7.186 2.593-.3 2.129 6.69-2.301.271Zm-1.716-2.582 1.114-.13-.557-2.655-.557 2.785ZM128.745 57.546c.004.468-.112.93-.337 1.347-.238.423-.59.779-1.022 1.03a4.22 4.22 0 0 1-1.686.527c-1.005.116-1.763-.026-2.278-.424-.516-.398-.769-.991-.769-1.776v-4.585l2.17-.264v4.525c-.027.292.045.586.206.838a.682.682 0 0 0 .307.187.714.714 0 0 0 .364.01.916.916 0 0 0 .377-.104.865.865 0 0 0 .292-.249c.155-.271.225-.578.203-.885v-4.509l2.173-.264v4.596ZM135.682 52.782l-1.003 1.23a2.627 2.627 0 0 0-.616-.263 1.6 1.6 0 0 0-.638-.045c-.21.023-.412.096-.585.212-.174.115-.315.27-.409.45a3.26 3.26 0 0 0-.343 1.657c0 .717.12 1.244.36 1.581.108.157.262.28.444.354.182.073.383.094.578.06.236-.027.464-.1.669-.216.245-.146.476-.314.688-.5l.95 1.027c-.309.324-.67.6-1.07.817-.412.229-.869.375-1.343.43a3.7 3.7 0 0 1-1.877-.206 2.453 2.453 0 0 1-1.221-1.11 3.987 3.987 0 0 1-.434-1.963 4.381 4.381 0 0 1 .443-2.01 3.61 3.61 0 0 1 1.234-1.4 4.105 4.105 0 0 1 1.822-.645 3.307 3.307 0 0 1 2.351.54ZM139.331 56.208l-.401.047v2.472l-2.17.263v-6.96l2.685-.31c1.061-.125 1.851-.037 2.371.263s.78.828.78 1.581c.012.39-.093.776-.303 1.112a3.55 3.55 0 0 1-.992.923l1.791 2.635-2.401.28-1.36-2.306Zm-.401-1.318.557-.066c.254-.015.492-.122.666-.298a.987.987 0 0 0 .22-.693c0-.527-.331-.759-.992-.682l-.462.055.011 1.684ZM148.062 57.654l-.279-1.317-1.738.202-.279 1.376-2.267.264 2.139-7.187 2.594-.3 2.128 6.69-2.298.272Zm-1.716-2.582 1.114-.13-.557-2.656-.557 2.786ZM156.603 50.344l-1.003 1.234a2.744 2.744 0 0 0-.615-.264 1.652 1.652 0 0 0-.638-.045 1.33 1.33 0 0 0-.586.214c-.174.116-.314.27-.409.45a3.243 3.243 0 0 0-.354 1.666c0 .717.12 1.24.36 1.568a.99.99 0 0 0 .444.354c.182.074.383.096.578.062.237-.028.464-.102.669-.219.246-.144.476-.31.688-.498l.95 1.025c-.309.325-.67.6-1.07.817-.411.23-.868.377-1.343.432a3.703 3.703 0 0 1-1.877-.208 2.451 2.451 0 0 1-1.22-1.107 3.986 3.986 0 0 1-.432-1.965 4.369 4.369 0 0 1 .44-2.008 3.61 3.61 0 0 1 1.234-1.4 4.077 4.077 0 0 1 1.822-.645 3.318 3.318 0 0 1 2.362.537ZM163.682 48.903l-2.343 4.648v2.562l-2.17.263v-2.55l-2.34-4.114 2.371-.264 1.083 2.707 1.098-2.96 2.301-.292Z" fill="#2A2A2A"/></svg>