<svg width="81" height="88" viewBox="0 0 81 88" fill="none" xmlns="http://www.w3.org/2000/svg">
<g style="mix-blend-mode:multiply" opacity="0.25">
<ellipse cx="16.5" cy="81" rx="16.5" ry="7" fill="#FF7A00"/>
</g>
<g style="mix-blend-mode:multiply" opacity="0.25">
<ellipse cx="60.5" cy="81" rx="16.5" ry="7" fill="#FF7A00"/>
</g>
<g clip-path="url(#clip0_0_1)">
<path d="M21.4901 28.9199L0.909977 8.33984C0.32497 7.75312 -0.00347519 6.95842 -0.00347519 6.12988C-0.00347519 5.30134 0.32497 4.50664 0.909977 3.91992C1.4967 3.33492 2.29152 3.00635 3.12006 3.00635C3.9486 3.00635 4.7433 3.33492 5.33002 3.91992L25.91 24.5098V10.1799C25.91 9.76889 25.991 9.36168 26.1483 8.98193C26.3056 8.60218 26.5361 8.2572 26.8267 7.96655C27.1174 7.67591 27.4625 7.44538 27.8422 7.28809C28.222 7.13079 28.6289 7.0498 29.04 7.0498C29.8684 7.05245 30.6619 7.38351 31.2468 7.97021C31.8316 8.55692 32.16 9.35153 32.16 10.1799V35.1799H7.15998C6.33158 35.1773 5.53802 34.8462 4.95319 34.2595C4.36836 33.6728 4.03998 32.8782 4.03998 32.0498C4.03998 31.2223 4.36869 30.4289 4.9538 29.8438C5.53891 29.2586 6.3325 28.9299 7.15998 28.9299L21.4901 28.9199ZM50.91 24.4998L71.4901 3.91992C71.7792 3.62785 72.1234 3.39578 72.5028 3.23755C72.8821 3.07932 73.289 2.99805 73.7 2.99805C74.111 2.99805 74.5179 3.07932 74.8973 3.23755C75.2766 3.39578 75.6208 3.62785 75.91 3.91992C76.495 4.50664 76.8236 5.30134 76.8236 6.12988C76.8236 6.95842 76.495 7.75312 75.91 8.33984L55.33 28.9199H69.66C70.0705 28.9186 70.4773 28.9983 70.857 29.1545C71.2367 29.3107 71.5818 29.5402 71.8726 29.8301C72.1634 30.1199 72.3942 30.4643 72.5516 30.8435C72.709 31.2227 72.79 31.6292 72.79 32.0398C72.79 32.8699 72.4602 33.6662 71.8732 34.2532C71.2862 34.8402 70.4901 35.1699 69.66 35.1699H44.66V10.1699C44.66 9.33979 44.9897 8.54353 45.5767 7.95654C46.1637 7.36955 46.9599 7.03979 47.79 7.03979C48.6184 7.04244 49.4119 7.3735 49.9968 7.96021C50.5816 8.54691 50.91 9.34152 50.91 10.1699V24.4998ZM55.33 53.9199L75.91 74.4897C76.495 75.0765 76.8236 75.8712 76.8236 76.6997C76.8236 77.5282 76.495 78.3232 75.91 78.9099C75.3233 79.4949 74.5286 79.8232 73.7 79.8232C72.8715 79.8232 72.0768 79.4949 71.4901 78.9099L50.91 58.3198V72.6599C50.91 73.4874 50.5813 74.2809 49.9962 74.866C49.411 75.4511 48.6175 75.7798 47.79 75.7798C46.9616 75.7798 46.167 75.4515 45.5803 74.8667C44.9936 74.2819 44.6626 73.4883 44.66 72.6599V47.6599H69.66C70.0705 47.6586 70.4773 47.7383 70.857 47.8945C71.2367 48.0507 71.5818 48.2802 71.8726 48.5701C72.1634 48.8599 72.3942 49.2043 72.5516 49.5835C72.709 49.9627 72.79 50.3692 72.79 50.7798C72.79 51.1908 72.709 51.5978 72.5517 51.9775C72.3944 52.3573 72.1639 52.7025 71.8732 52.9932C71.5826 53.2838 71.2376 53.5143 70.8579 53.6716C70.4781 53.8289 70.071 53.9099 69.66 53.9099L55.33 53.9199ZM25.91 58.3298L5.33002 78.9199C4.7433 79.5049 3.9486 79.8333 3.12006 79.8333C2.29152 79.8333 1.4967 79.5049 0.909977 78.9199C0.32497 78.3332 -0.00347519 77.5383 -0.00347519 76.7097C-0.00347519 75.8812 0.32497 75.0865 0.909977 74.4998L21.4901 53.9299H7.15998C6.33158 53.9273 5.53802 53.5962 4.95319 53.0095C4.36836 52.4228 4.03998 51.6282 4.03998 50.7998C4.03998 49.9723 4.36869 49.1789 4.9538 48.5938C5.53891 48.0086 6.3325 47.6799 7.15998 47.6799H32.16V72.6799C32.16 73.5074 31.8313 74.3009 31.2462 74.886C30.661 75.4711 29.8675 75.7998 29.04 75.7998C28.2116 75.7998 27.417 75.4715 26.8303 74.8867C26.2436 74.3019 25.9126 73.5083 25.91 72.6799V58.3298Z" fill="white"/>
</g>
<defs>
<clipPath id="clip0_0_1">
<rect width="80.38" height="80.38" fill="white"/>
</clipPath>
</defs>
</svg>
