<svg width="86" height="92" fill="none" xmlns="http://www.w3.org/2000/svg"><path d="M81 85c0 3.866-17.237 7-38.5 7S4 88.866 4 85c0-1.609 2.984-3.09 8-4.272 2.768-.653 6.154 3.713 10 3.272 3.635-.416 7.68-5.652 12-5.829 2.734-.112 5.58-.171 8.5-.171 3.459 0 6.811.083 10 .238 3.758.184 6.289 4.894 9.5 5.262 3.846.44 8.232-3.425 11-2.772 5.016 1.182 8 2.663 8 4.272Z" fill="#FF7A00" style="mix-blend-mode:multiply" opacity=".5"/><g clip-path="url(#a)" fill="#fff" stroke="#fff" stroke-width="2" stroke-miterlimit="10"><path d="M42.591 2.349a17.236 17.236 0 0 0-17.16 17.16 17.225 17.225 0 0 0 17.16 17.162A17.236 17.236 0 0 0 59.752 19.51a17.235 17.235 0 0 0-17.16-17.161Zm0 35.694a18.501 18.501 0 0 1-18.47-18.447 18.501 18.501 0 0 1 18.48-18.491 18.502 18.502 0 0 1 18.492 18.48A18.502 18.502 0 0 1 42.59 38.044Z"/><path d="M55.73 32.273a.632.632 0 0 1-.569-.354 13.943 13.943 0 0 0-12.56-7.797 13.944 13.944 0 0 0-12.57 7.797.643.643 0 0 1-.857.29.654.654 0 0 1-.29-.858 15.23 15.23 0 0 1 13.707-8.505 15.21 15.21 0 0 1 13.707 8.548.63.63 0 0 1-.29.858.622.622 0 0 1-.278.064v-.043ZM42.591 8.066a5.363 5.363 0 0 0-5.298 5.309 5.363 5.363 0 0 0 5.298 5.363 5.363 5.363 0 0 0 5.363-5.363 5.363 5.363 0 0 0-5.363-5.31Zm0 11.894a6.585 6.585 0 0 1 0-13.17 6.596 6.596 0 0 1 6.586 6.585 6.586 6.586 0 0 1-6.586 6.585ZM65.544 48.233a17.236 17.236 0 0 0-17.161 17.214 17.236 17.236 0 0 0 17.16 17.161 17.225 17.225 0 0 0 17.162-17.16 17.236 17.236 0 0 0-17.161-17.215Zm0 35.694a18.502 18.502 0 0 1-18.48-18.48 18.5 18.5 0 0 1 18.48-18.48 18.49 18.49 0 0 1 18.48 18.48 18.501 18.501 0 0 1-18.48 18.502v-.022Z"/><path d="M78.672 78.157a.634.634 0 0 1-.569-.354 13.944 13.944 0 0 0-12.57-7.786 13.944 13.944 0 0 0-12.56 7.786.632.632 0 0 1-.858.29.643.643 0 0 1-.29-.847 15.22 15.22 0 0 1 13.708-8.516 15.208 15.208 0 0 1 13.707 8.516.62.62 0 0 1-.29.847.494.494 0 0 1-.278.064ZM65.544 53.917a5.363 5.363 0 0 0-5.31 5.31 5.363 5.363 0 0 0 5.31 5.309 5.362 5.362 0 0 0 5.363-5.31 5.363 5.363 0 0 0-5.363-5.309Zm0 11.895a6.585 6.585 0 0 1-6.586-6.575 6.585 6.585 0 0 1 6.586-6.585 6.596 6.596 0 0 1 0 13.192v-.032ZM19.563 48.233a17.236 17.236 0 0 0-17.16 17.214 17.225 17.225 0 0 0 17.16 17.161 17.225 17.225 0 0 0 17.161-17.16 17.225 17.225 0 0 0-17.16-17.215Zm0 35.694a18.512 18.512 0 0 1-18.49-18.48 18.502 18.502 0 0 1 18.49-18.48 18.502 18.502 0 0 1 18.48 18.48 18.501 18.501 0 0 1-18.48 18.502v-.022Z"/><path d="M32.702 78.157a.655.655 0 0 1-.579-.354 13.943 13.943 0 0 0-12.56-7.786 13.943 13.943 0 0 0-12.57 7.786.622.622 0 0 1-.847.29.622.622 0 0 1-.29-.847 15.187 15.187 0 0 1 13.697-8.516 15.198 15.198 0 0 1 13.707 8.516.62.62 0 0 1-.29.847.45.45 0 0 1-.268.064ZM19.563 53.917a5.363 5.363 0 0 0-5.362 5.31 5.363 5.363 0 0 0 10.725 0 5.363 5.363 0 0 0-5.363-5.31Zm0 11.895a6.586 6.586 0 0 1-6.585-6.575 6.585 6.585 0 0 1 6.585-6.585 6.596 6.596 0 0 1 0 13.192v-.032ZM57.543 50.131a.643.643 0 0 1-.58-.364l-6.607-14.169a.634.634 0 0 1 .311-.847.634.634 0 0 1 .848.31l6.607 14.159a.654.654 0 0 1-.311.847.61.61 0 0 1-.268.064ZM27.586 50.142a.751.751 0 0 1-.268-.054.643.643 0 0 1-.311-.847l6.64-14.19a.63.63 0 0 1 .846-.31.643.643 0 0 1 .311.846l-6.639 14.19a.655.655 0 0 1-.579.365ZM47.718 65.469H37.411v1.416h10.307v-1.416Z"/></g><defs><clipPath id="a"><path fill="#fff" d="M0 0h85.097v85H0z"/></clipPath></defs></svg>