<svg width="74" height="98" fill="none" xmlns="http://www.w3.org/2000/svg"><ellipse cx="25" cy="91" rx="24" ry="7" fill="#EF4224" style="mix-blend-mode:multiply" opacity=".5"/><g clip-path="url(#a)"><ellipse cx="58.5" cy="79.078" rx="14.5" ry="7.078" fill="#EF4224" style="mix-blend-mode:multiply" opacity=".5"/><path d="M24.9 87.63a24.49 24.49 0 0 1-17.47-7.37A24.48 24.48 0 0 1 .51 62.61v-.85c.71-10.88 14.71-36.16 23.07-49.69a1.52 1.52 0 0 1 1.28-.71 1.51 1.51 0 0 1 1.3.71c1 1.53 23.1 37.52 23.1 50.52a24.53 24.53 0 0 1-6.91 17.67 24.53 24.53 0 0 1-17.45 7.37Zm-.87-70.4c-3.42 5.76-20.48 35-20.48 45.36a21.41 21.41 0 0 0 21.33 21.36h1a21.42 21.42 0 0 0 20.36-21.32c0-9.93-15.69-37.23-20.5-45.36l-.86-1.45-.85 1.41ZM58.43 44.67a14.39 14.39 0 0 1-10.29-4.36 14.34 14.34 0 0 1-4-10.43v-.68c.53-6.33 8.33-20.42 13-28a1.52 1.52 0 0 1 2.58.01c3.39 5.37 13.06 22.16 13 28.62a14.4 14.4 0 0 1-4 10.47 14.39 14.39 0 0 1-10.29 4.37Zm-.87-38.26c-1.73 3-10.41 18.13-10.41 23.43a11.31 11.31 0 0 0 11.27 11.29h.28a11.34 11.34 0 0 0 11-11.26c0-5.34-8.68-20.46-10.42-23.44l-.86-1.48-.86 1.46Z" fill="#fff" stroke="#fff" stroke-miterlimit="10"/><path d="M29.79 77.33a1.52 1.52 0 0 1-1.52-1.51 1.52 1.52 0 0 1 1.52-1.52 6.63 6.63 0 0 0 6.6-6.6 1.531 1.531 0 0 1 1.52-1.52 1.52 1.52 0 0 1 1.52 1.51 9.66 9.66 0 0 1-9.58 9.64h-.06Z" fill="#fff" stroke="#fff" stroke-miterlimit="10"/></g><defs><clipPath id="a"><path fill="#fff" d="M0 0h73.25v88.14H0z"/></clipPath></defs></svg>