<svg width="93" height="96" fill="none" xmlns="http://www.w3.org/2000/svg"><path d="M87 89c0 3.866-17.685 7-39.5 7S8 92.866 8 89c0-1.302 2.006-2.521 5.5-3.565 1.762-.527 7.547 3.49 10 3.065 1.875-.326.29-5.118 2.5-5.373C32.187 82.414 39.57 82 47.5 82 69.315 82 87 85.134 87 89Z" fill="#EC1C24" style="mix-blend-mode:multiply" opacity=".5"/><g clip-path="url(#a)" fill="#fff"><path d="M76.345 5.615c2.792 3.51 9.104 13.69-.12 25.241-10.477 13.183-26.067 31.27-30.083 35.927l-12.98-10.465L76.346 5.615Zm-40.39 56.997-7.513 8.81c-4.22 4.935-4.198 9.533-4.173 12.567.002 1.22.02 2.48-.332 2.789-.17.164-.824.474-3.115.247-7.06-.726-7.733-5.439-7.755-7.03l18.08-21.257 4.809 3.874ZM23.173 90.17a4.68 4.68 0 0 0 2.88-1.093c1.383-1.195 1.367-3.12 1.332-5.103-.024-2.883-.032-6.473 3.426-10.55l7.566-8.867 8.157 6.562.987-1.141c.182-.217 19.048-21.933 31.138-37.158 12.95-16.27-1.079-30.559-1.23-30.71L76.258.925 10.032 78.738l-.045.49c.014.1-.715 9.692 10.54 10.864.884.104 1.775.123 2.662.056l-.017.022Z"/><path d="m26.283 61.913 1.993-2.388 7.118 5.938-1.992 2.388-7.119-5.938ZM42.496 65.93c.226-.272 23.663-27.768 30.938-37.15 7.965-10.253-.016-21.369-.101-21.479l-2.496 1.85c.27.366 6.652 9.337.152 17.727-7.234 9.316-30.628 36.756-30.862 37.04l2.369 2.012Z"/></g><defs><clipPath id="a"><path fill="#fff" transform="scale(1 -1) rotate(-82.347 -6.017 -5.93)" d="M0 0h81.37v81.94H0z"/></clipPath></defs></svg>