<svg width="82" height="78" viewBox="0 0 82 78" fill="none" xmlns="http://www.w3.org/2000/svg">
<g style="mix-blend-mode:multiply" opacity="0.5">
<ellipse cx="45.5" cy="70.078" rx="22.5" ry="7.078" fill="#FCAE26"/>
</g>
<g clip-path="url(#clip0_0_1)">
<path d="M64.94 64.3699C64.914 64.3615 64.8859 64.3615 64.8599 64.3699C63.4852 64.4742 62.1047 64.4742 60.73 64.3699C60.4486 64.3609 60.1743 64.4594 59.9626 64.645C59.7509 64.8307 59.6178 65.0897 59.59 65.3699C59.5818 65.6461 59.6817 65.9146 59.8685 66.1182C60.0553 66.3218 60.3142 66.4445 60.59 66.46C61.48 66.52 62.29 66.5501 63.07 66.5501C63.85 66.5501 64.4 66.55 65.07 66.48C65.3459 66.4645 65.6048 66.3418 65.7916 66.1382C65.9784 65.9346 66.0783 65.6661 66.07 65.3899C66.0556 65.1294 65.9457 64.8832 65.7612 64.6987C65.5767 64.5142 65.3306 64.4043 65.07 64.3899L64.94 64.3699ZM80.9999 47.96V47.8799C80.9819 47.5977 80.853 47.3341 80.6413 47.1467C80.4296 46.9594 80.1522 46.8635 79.8699 46.8799C79.7325 46.8796 79.5965 46.9076 79.4704 46.9622C79.3443 47.0167 79.2307 47.0966 79.1369 47.197C79.0431 47.2974 78.9709 47.4161 78.925 47.5457C78.8791 47.6752 78.8603 47.8129 78.8699 47.95V48.01C78.8699 48.27 78.8699 48.65 78.8699 49.01C78.8645 50.0154 78.7776 51.0187 78.6099 52.01C78.5951 52.0792 78.5951 52.1508 78.6099 52.22C78.6197 52.4607 78.7113 52.691 78.8695 52.8728C79.0276 53.0546 79.243 53.177 79.48 53.22H79.68C79.9193 53.2107 80.1484 53.1205 80.33 52.9644C80.5116 52.8082 80.635 52.5951 80.68 52.3599C80.8808 51.2512 80.9813 50.1267 80.98 49V48L80.9999 47.96ZM78.82 55.3001C78.5663 55.1827 78.2766 55.169 78.0131 55.2625C77.7496 55.3559 77.5331 55.549 77.41 55.8001C76.8448 57.0078 76.1255 58.1371 75.27 59.1599C75.1093 59.3509 75.0177 59.5904 75.01 59.8399C75.0114 59.9981 75.047 60.1544 75.1143 60.2976C75.1816 60.4409 75.2791 60.5678 75.4 60.6699C75.595 60.8208 75.8335 60.9049 76.08 60.9099C76.2372 60.9136 76.3931 60.8824 76.5367 60.8184C76.6802 60.7544 76.8077 60.6594 76.91 60.54C77.8875 59.3721 78.7079 58.081 79.35 56.7C79.4219 56.5612 79.4563 56.4061 79.45 56.25C79.4553 56.0423 79.4005 55.8375 79.2923 55.6602C79.1841 55.4828 79.0271 55.3404 78.84 55.25L78.82 55.3001ZM56.6 63.8799C55.39 63.6899 54.06 63.4499 52.44 63.1199C52.3021 63.0922 52.1601 63.0921 52.0222 63.1194C51.8842 63.1466 51.7528 63.2008 51.6358 63.2788C51.5188 63.3568 51.4184 63.4571 51.3402 63.574C51.2619 63.6909 51.2075 63.822 51.18 63.96C51.1758 64.0299 51.1758 64.1 51.18 64.1699C51.1858 64.4173 51.2748 64.6554 51.4327 64.846C51.5905 65.0365 51.808 65.1683 52.05 65.22C53.59 65.53 54.96 65.77 56.22 65.97C56.2493 65.9792 56.2807 65.9792 56.31 65.97H56.48C56.7251 65.9589 56.9587 65.8631 57.1411 65.699C57.3234 65.5349 57.4433 65.3124 57.48 65.0698C57.48 65.0698 57.48 64.9599 57.48 64.8999C57.464 64.658 57.3678 64.4284 57.2066 64.2473C57.0454 64.0662 56.8285 63.9439 56.59 63.8999L56.6 63.8799ZM75.9 36.4399C75.901 36.2987 75.8723 36.1588 75.8154 36.0295C75.7585 35.9003 75.6749 35.7846 75.57 35.6899C74.4567 34.6088 73.1641 33.729 71.7499 33.0899C71.4904 32.983 71.1998 32.9795 70.9377 33.0798C70.6756 33.1802 70.4618 33.377 70.34 33.6299C70.2815 33.7592 70.249 33.8989 70.2445 34.0408C70.2399 34.1827 70.2634 34.324 70.3135 34.4568C70.3637 34.5896 70.4395 34.7115 70.5367 34.8149C70.6339 34.9184 70.7505 35.0017 70.88 35.0601C72.0656 35.6042 73.1509 36.3446 74.09 37.25C74.2924 37.4336 74.5568 37.5337 74.83 37.53C74.9741 37.5302 75.1166 37.5011 75.249 37.4443C75.3814 37.3876 75.5009 37.3044 75.6 37.2C75.6971 37.0998 75.7722 36.9805 75.8204 36.8496C75.8686 36.7187 75.8889 36.5792 75.88 36.4399H75.9ZM72.31 61.9099L72.15 62.02C71.136 62.7493 70.0071 63.3035 68.81 63.6599C68.5994 63.7312 68.4155 63.8652 68.2833 64.044C68.151 64.2227 68.0766 64.4377 68.07 64.6599C68.0548 64.766 68.0548 64.8739 68.07 64.98C68.1357 65.1948 68.268 65.3833 68.4477 65.5181C68.6274 65.6529 68.8454 65.7271 69.07 65.73C69.1816 65.7266 69.2924 65.7098 69.4 65.6799C70.8006 65.2436 72.1236 64.5889 73.32 63.74L73.42 63.6699L73.51 63.5999C73.6436 63.5021 73.7522 63.3743 73.827 63.2266C73.9017 63.0788 73.9404 62.9156 73.94 62.75C73.9366 62.5218 73.8671 62.2994 73.7399 62.1099C73.5658 61.8883 73.314 61.7412 73.0355 61.6985C72.7569 61.6558 72.4725 61.7206 72.2399 61.8799L72.31 61.9099ZM48.2399 62.25C47.0999 62 45.6 61.6699 44.1 61.3699C43.8221 61.3193 43.5354 61.3787 43.3004 61.5354C43.0653 61.6921 42.9003 61.934 42.84 62.21C42.831 62.2797 42.831 62.3502 42.84 62.4199C42.8435 62.6664 42.9304 62.9045 43.0866 63.0952C43.2428 63.2859 43.4591 63.418 43.7 63.47C44.82 63.69 45.97 63.95 47.06 64.2L47.8699 64.3699H48.1C48.3361 64.3599 48.5621 64.2721 48.743 64.1201C48.9239 63.9682 49.0495 63.7608 49.1 63.53C49.1049 63.4601 49.1049 63.3897 49.1 63.3198C49.0935 63.0731 49.0057 62.8355 48.8502 62.6438C48.6946 62.4521 48.4801 62.3172 48.2399 62.26V62.25ZM22.32 61.6699C20.9534 62.3513 19.7015 63.2422 18.6099 64.3101C18.5076 64.4088 18.4258 64.5266 18.3692 64.657C18.3126 64.7874 18.2822 64.9277 18.28 65.0698C18.2829 65.3563 18.3936 65.6313 18.59 65.8399C18.6901 65.939 18.8086 66.0176 18.939 66.0708C19.0694 66.124 19.2092 66.1508 19.35 66.1499C19.4887 66.1519 19.6262 66.1264 19.7549 66.075C19.8837 66.0235 20.001 65.9469 20.1 65.8499C21.0312 64.9273 22.1049 64.1608 23.28 63.5798C23.4641 63.4876 23.6178 63.3444 23.7225 63.167C23.8271 62.9896 23.8783 62.7856 23.8699 62.5798C23.8631 62.4241 23.8257 62.2712 23.76 62.1299C23.6296 61.8783 23.4056 61.688 23.1362 61.6001C22.8668 61.5122 22.5737 61.5337 22.32 61.6599V61.6699ZM76.4 39.8101C76.4048 40.0073 76.4599 40.1999 76.56 40.3699C77.2397 41.5276 77.7769 42.7634 78.16 44.0501C78.227 44.2641 78.3597 44.4516 78.5391 44.5862C78.7186 44.7208 78.9357 44.7956 79.16 44.8001C79.2594 44.8151 79.3606 44.8151 79.46 44.8001C79.6786 44.7379 79.8714 44.6071 80.0101 44.427C80.1487 44.247 80.2258 44.0273 80.23 43.8001C80.2454 43.6939 80.2454 43.5861 80.23 43.48C79.7982 42.028 79.1903 40.6342 78.42 39.3298C78.2725 39.0878 78.0365 38.9127 77.762 38.8418C77.4876 38.7709 77.1964 38.8097 76.95 38.95C76.7926 39.0452 76.6616 39.1784 76.569 39.3374C76.4764 39.4964 76.4252 39.676 76.42 39.8599L76.4 39.8101ZM39.79 60.5501C38.28 60.3001 36.9 60.1 35.55 59.97H35.48C35.3395 59.9605 35.1983 59.9788 35.0649 60.0239C34.9314 60.0691 34.8081 60.1402 34.7022 60.2332C34.5963 60.3261 34.5097 60.439 34.4476 60.5654C34.3854 60.6919 34.3489 60.8294 34.34 60.97C34.3306 61.0026 34.3306 61.0372 34.34 61.0698C34.3394 61.3419 34.4425 61.604 34.6282 61.8027C34.814 62.0015 35.0686 62.1221 35.34 62.1399C36.62 62.2699 38 62.45 39.51 62.71C39.5662 62.7197 39.6237 62.7197 39.68 62.71C39.9251 62.6989 40.1588 62.6031 40.3411 62.439C40.5235 62.2749 40.6432 62.0526 40.68 61.8101C40.6905 61.7573 40.6905 61.7027 40.68 61.6499C40.6861 61.3957 40.6006 61.1476 40.439 60.9512C40.2775 60.7547 40.0506 60.623 39.8 60.5798L39.79 60.5501ZM31.1099 59.76C29.619 59.7688 28.1324 59.9194 26.67 60.21C26.4265 60.2567 26.207 60.3875 26.0499 60.5794C25.8927 60.7712 25.8079 61.012 25.81 61.26C25.8002 61.3297 25.8002 61.4003 25.81 61.47C25.8567 61.7044 25.9804 61.9164 26.1617 62.0723C26.3429 62.2281 26.5712 62.3188 26.81 62.3298C26.8763 62.3393 26.9436 62.3393 27.01 62.3298C28.3503 62.0625 29.7133 61.9253 31.08 61.9199C31.363 61.9096 31.6312 61.7907 31.8287 61.5877C32.0261 61.3846 32.1376 61.113 32.14 60.8298C32.1176 60.56 31.9957 60.3084 31.7979 60.1235C31.6001 59.9387 31.3407 59.8339 31.07 59.8298L31.1099 59.76ZM66.03 15.9199L14.39 3.54004L73.81 7.70997L66.03 15.9199ZM65.31 29.0698L60.39 23.5501C60.2778 23.4274 60.137 23.3346 59.98 23.28L16.42 6.28004L65.29 18L65.31 29.0698ZM58.47 27L59.57 25.8499L62.1099 28.71L58.47 27ZM47.2499 35.73L8.06 5.26002L57.72 24.6899L47.2499 35.73ZM77.14 6.40992C77.0657 6.2218 76.9401 6.05846 76.7774 5.93824C76.6148 5.81802 76.4217 5.74581 76.22 5.72999L1.64997 0.500006C1.42015 0.486218 1.19189 0.545484 0.997868 0.669439C0.803851 0.793395 0.654088 0.975614 0.570012 1.18995C0.487827 1.40281 0.47653 1.63641 0.537785 1.85621C0.599041 2.07601 0.729545 2.27025 0.909978 2.40992L46.7 38.01C46.8852 38.1636 47.1194 38.2452 47.3599 38.24C47.5053 38.2427 47.6496 38.2135 47.7825 38.1548C47.9155 38.0961 48.034 38.0091 48.1299 37.8999L56.91 28.6399L65.91 32.8399C66.0403 32.8993 66.1818 32.9302 66.325 32.9302C66.4682 32.9302 66.6097 32.8993 66.7399 32.8399C66.942 32.7616 67.1159 32.6244 67.239 32.4461C67.362 32.2677 67.4286 32.0565 67.43 31.8398V17.5L76.9 7.50001C77.0405 7.35221 77.1359 7.16725 77.1749 6.96705C77.2139 6.76684 77.1948 6.55961 77.1199 6.36988L77.14 6.40992Z" fill="white" stroke="white" stroke-miterlimit="10"/>
</g>
<defs>
<clipPath id="clip0_0_1">
<rect width="81.53" height="67.09" fill="white"/>
</clipPath>
</defs>
</svg>
