<svg width="69" height="107" fill="none" xmlns="http://www.w3.org/2000/svg"><path d="M66 100c0 3.866-14.103 7-31.5 7S3 103.866 3 100c0-3.252 9.977-5.986 23.5-6.772 2.555-.149 5.236 4.772 8 4.772 2.764 0 5.445-4.921 8-4.772C56.023 94.014 66 96.748 66 100Z" fill="#FCAE26" style="mix-blend-mode:multiply" opacity=".5"/><g clip-path="url(#a)"><path d="M34.55 12.41A22.53 22.53 0 0 0 18.9 18.9a22.55 22.55 0 0 0-6.49 15.65 22 22 0 0 0 6.49 15.52 22 22 0 0 0 15.65 6.49 21.4 21.4 0 0 0 15.52-6.49 21.403 21.403 0 0 0 6.49-15.52 22 22 0 0 0-6.47-15.65 22 22 0 0 0-15.54-6.49Zm-.28 83.64h.42a7.23 7.23 0 0 0 4.23-1.41 4.78 4.78 0 0 0 1.69-3.67v-.14c-.14-5.93-1.27-16.5-2-22.85l-.14-1.27a2.1 2.1 0 0 1 1.69-2.25 30.1 30.1 0 0 0 17.77-10.58 30.1 30.1 0 0 0 7-19.33 29.87 29.87 0 0 0-9-21.57 30.4 30.4 0 0 0-21.43-9 30.5 30.5 0 0 0-21.58 9 30.48 30.48 0 0 0-9 21.57 30.1 30.1 0 0 0 7 19.33 30.521 30.521 0 0 0 17.77 10.58 2 2 0 0 1 1.7 2.25l-.14 1.27c-.71 6.35-1.84 16.93-2 22.85v.14a4.51 4.51 0 0 0 1.83 3.67 7.14 7.14 0 0 0 4.09 1.41h.1Zm.28 4h-.28a11.047 11.047 0 0 1-6.63-2.26 8.279 8.279 0 0 1-3.24-6.77v-.14c.14-6.21 1.27-16.36 1.83-22.85A34.28 34.28 0 0 1 7.89 56.47 34.06 34.06 0 0 1 0 34.6a34.45 34.45 0 0 1 10.15-24.4A34.409 34.409 0 0 1 34.55.05 34.94 34.94 0 0 1 58.96 10.2a34.33 34.33 0 0 1 10 24.4 34 34 0 0 1-7.9 21.87 33.71 33.71 0 0 1-18.33 11.56c.71 6.49 1.69 16.65 1.83 22.85l.14.14a8.4 8.4 0 0 1-3.39 6.77 11 11 0 0 1-6.48 2.26h-.28Zm.14-79.83a1.879 1.879 0 0 1 2.82 0 1.88 1.88 0 0 1 0 2.82L27.36 33.33a2.13 2.13 0 0 1-2.82 0 1.999 1.999 0 0 1 0-3l10.15-10.11Zm7 7.05a1.881 1.881 0 0 1 2.82 0 2.13 2.13 0 0 1 0 2.82L29.14 45.46a2.13 2.13 0 0 1-2.82 0 2.32 2.32 0 0 1 0-3l15.37-15.19ZM34.5 87.49a2.47 2.47 0 0 1 2.4 2.4 2.47 2.47 0 0 1-2.4 2.4 2.379 2.379 0 0 1-2.4-2.4 2.38 2.38 0 0 1 2.45-2.45l-.05.05Zm0-79a25.91 25.91 0 0 1 18.34 7.62 26 26 0 0 1 7.76 18.47 25.482 25.482 0 0 1-7.76 18.34 25.439 25.439 0 0 1-18.34 7.76 25.999 25.999 0 0 1-18.48-7.76 25.92 25.92 0 0 1-7.61-18.34 26.48 26.48 0 0 1 7.61-18.47 26.49 26.49 0 0 1 18.53-7.65l-.05.03Z" fill="#fff"/></g><defs><clipPath id="a"><path fill="#fff" d="M0 0h68.98v100H0z"/></clipPath></defs></svg>